<svg xmlns="http://www.w3.org/2000/svg">
	<symbol fill="none" id="search" viewBox="0 0 20 20">
		<path d="M14.2939 12.5786H13.3905L13.0703 12.2699C14.191 10.9663 14.8656 9.27387 14.8656 7.43282C14.8656 3.32762 11.538 0 7.43282 0C3.32762 0 0 3.32762 0 7.43282C0 11.538 3.32762 14.8656 7.43282 14.8656C9.27387 14.8656 10.9663 14.191 12.2699 13.0703L12.5786 13.3905V14.2939L18.2962 20L20 18.2962L14.2939 12.5786ZM7.43282 12.5786C4.58548 12.5786 2.28702 10.2802 2.28702 7.43282C2.28702 4.58548 4.58548 2.28702 7.43282 2.28702C10.2802 2.28702 12.5786 4.58548 12.5786 7.43282C12.5786 10.2802 10.2802 12.5786 7.43282 12.5786Z" fill="currentColor"/>
	</symbol>
	<symbol fill="none" id="sort" viewBox="0 0 21 14">
		<path d="M0.25 14H6.91667V11.6667H0.25V14ZM0.25 0V2.33333H20.25V0H0.25ZM0.25 8.16667H13.5833V5.83333H0.25V8.16667Z" fill="currentColor"/>
	</symbol>
	<symbol fill="none" id="filter" viewBox="0 0 21 20">
		<path d="M0.765947 2.0125C3.30472 5.25 7.99265 11.25 7.99265 11.25V18.75C7.99265 19.4375 8.55822 20 9.24947 20H11.7631C12.4544 20 13.0199 19.4375 13.0199 18.75V11.25C13.0199 11.25 17.6953 5.25 20.2341 2.0125C20.875 1.1875 20.2843 0 19.2412 0H1.75883C0.715675 0 0.12497 1.1875 0.765947 2.0125Z" fill="currentColor"/>
	</symbol>
	<symbol fill="none" id="add" viewBox="0 0 20 20">
		<path stroke="currentColor" d="M10.75 0V9.45984M10.75 9.45984V20M10.75 9.45984H0.75M10.75 9.45984H20.75" stroke-width="2"/>
	</symbol>
</svg>