<svg xmlns="http://www.w3.org/2000/svg">
	<symbol fill="none" id="alphabet-asc" viewBox="0 0 14 14">
		<path d="M13.2665 9.10544C13.3713 8.99667 13.4426 8.8581 13.4715 8.70725C13.5004 8.55639 13.4855 8.40004 13.4288 8.25794C13.3722 8.11584 13.2762 7.99438 13.153 7.90891C13.0298 7.82344 12.885 7.77781 12.7368 7.77778H7.49224V9.33333H10.9282L7.71176 12.6723C7.60701 12.7811 7.53568 12.9197 7.50679 13.0705C7.47789 13.2214 7.49273 13.3777 7.54942 13.5198C7.60612 13.6619 7.70212 13.7834 7.8253 13.8689C7.94848 13.9543 8.0933 14 8.24146 14H13.486V12.4444H10.0501L13.2665 9.10544ZM2.9969 0.77L0 3.88111H2.24767V13.2144H3.74612V3.88111H5.99379L2.9969 0.77ZM11.2384 0H9.73991C9.42749 0 9.14802 0.201444 9.03789 0.504778L6.97752 6.20822H8.57862L9.13529 4.66667H11.8422L12.3989 6.20744H14L11.9396 0.504C11.886 0.355922 11.7901 0.228346 11.6648 0.138295C11.5395 0.048244 11.3908 0 11.2384 0ZM9.69721 3.11111L10.2591 1.55556H10.7184L11.2803 3.11111H9.69721Z" fill="currentColor"/>
	</symbol>
	<symbol fill="none" id="alphabet-desc" viewBox="0 0 14 14">
		<path d="M13.2665 9.10544C13.3713 8.99667 13.4426 8.8581 13.4715 8.70725C13.5004 8.55639 13.4855 8.40004 13.4288 8.25794C13.3722 8.11584 13.2762 7.99438 13.153 7.90891C13.0298 7.82344 12.885 7.77781 12.7368 7.77778H7.49224V9.33333H10.9282L7.71176 12.6723C7.60701 12.7811 7.53568 12.9197 7.50679 13.0705C7.47789 13.2214 7.49273 13.3777 7.54942 13.5198C7.60612 13.6619 7.70212 13.7834 7.8253 13.8689C7.94848 13.9543 8.0933 14 8.24146 14H13.486V12.4444H10.0501L13.2665 9.10544ZM3.74612 0.77H2.24767V10.1033H0L2.9969 13.2144L5.99379 10.1033H3.74612V0.77ZM11.2384 0H9.73991C9.42749 0 9.14802 0.201444 9.03789 0.504778L6.97752 6.20822H8.57862L9.13529 4.66667H11.8422L12.3989 6.20744H14L11.9396 0.504C11.886 0.355922 11.7901 0.228346 11.6648 0.138295C11.5395 0.048244 11.3908 0 11.2384 0ZM9.69721 3.11111L10.2591 1.55556H10.7184L11.2803 3.11111H9.69721Z" fill="currentColor"/>
	</symbol>
	<symbol fill="none" id="asc" viewBox="0 0 20 14">
		<path d="M0 14H6.66667V11.6667H0V14ZM0 0V2.33333H20V0H0ZM0 8.16667H13.3333V5.83333H0V8.16667Z" fill="currentColor"/>
	</symbol>
	<symbol fill="none" id="desc" viewBox="0 0 20 14">
		<path d="M0 0H6.66667V2.33333H0L0 0ZM0 14L0 11.6667L20 11.6667V14L0 14ZM0 5.83333L13.3333 5.83333L13.3333 8.16667L0 8.16667L0 5.83333Z" fill="currentColor"/>
	</symbol>
</svg>