<svg xmlns="http://www.w3.org/2000/svg">
	<symbol fill="none" id="widget-1" viewBox="0 0 20 20">
		<path d="M6.84211 15.5556H4.73684V7.77778H6.84211V15.5556ZM11.0526 15.5556H8.94737V4.44444H11.0526V15.5556ZM15.2632 15.5556H13.1579V11.1111H15.2632V15.5556ZM17.8947 17.8889H2.10526V2.22222H17.8947V17.8889ZM17.8947 0H2.10526C0.947368 0 0 1 0 2.22222V17.7778C0 19 0.947368 20 2.10526 20H17.8947C19.0526 20 20 19 20 17.7778V2.22222C20 1 19.0526 0 17.8947 0Z" fill="currentColor"/>
	</symbol>
	<symbol fill="none" id="widget-2" viewBox="0 0 20 20">
		<path d="M5 6.25H0V20H5V6.25Z" fill="currentColor"/>
		<path d="M20 11.25H15V20H20V11.25Z" fill="currentColor"/>
		<path d="M12.5 0H7.5V20H12.5V0Z" fill="currentColor"/>
	</symbol>
	<symbol fill="none" id="widget-3" viewBox="0 0 20 20">
		<path d="M0 18.4194L7.5 10.5058L11.5 14.7208L18.59 6.32244L20 7.80822L11.5 17.882L7.5 13.667L1.5 20L0 18.4194ZM1.5 13.6776L7.5 7.34457L11.5 11.5595L20 1.48577L18.59 0L11.5 8.39831L7.5 4.18335L0 12.0969L1.5 13.6776Z" fill="currentColor"/>
	</symbol>
</svg>