<svg xmlns="http://www.w3.org/2000/svg">
	<symbol fill="none" id="search" viewBox="0 0 20 20">
		<path d="M14.2939 12.5786H13.3905L13.0703 12.2699C14.191 10.9663 14.8656 9.27387 14.8656 7.43282C14.8656 3.32762 11.538 0 7.43282 0C3.32762 0 0 3.32762 0 7.43282C0 11.538 3.32762 14.8656 7.43282 14.8656C9.27387 14.8656 10.9663 14.191 12.2699 13.0703L12.5786 13.3905V14.2939L18.2962 20L20 18.2962L14.2939 12.5786ZM7.43282 12.5786C4.58548 12.5786 2.28702 10.2802 2.28702 7.43282C2.28702 4.58548 4.58548 2.28702 7.43282 2.28702C10.2802 2.28702 12.5786 4.58548 12.5786 7.43282C12.5786 10.2802 10.2802 12.5786 7.43282 12.5786Z" fill="currentColor"/>
	</symbol>
	<symbol fill="none" id="sort" viewBox="0 0 21 14">
		<path d="M0.25 14H6.91667V11.6667H0.25V14ZM0.25 0V2.33333H20.25V0H0.25ZM0.25 8.16667H13.5833V5.83333H0.25V8.16667Z" fill="currentColor"/>
	</symbol>
	<symbol fill="none" id="filter" viewBox="0 0 21 20">
		<path d="M0.765947 2.0125C3.30472 5.25 7.99265 11.25 7.99265 11.25V18.75C7.99265 19.4375 8.55822 20 9.24947 20H11.7631C12.4544 20 13.0199 19.4375 13.0199 18.75V11.25C13.0199 11.25 17.6953 5.25 20.2341 2.0125C20.875 1.1875 20.2843 0 19.2412 0H1.75883C0.715675 0 0.12497 1.1875 0.765947 2.0125Z" fill="currentColor"/>
	</symbol>
	<symbol fill="none" id="add" viewBox="0 0 20 20">
		<path stroke="currentColor" d="M10.75 0V9.45984M10.75 9.45984V20M10.75 9.45984H0.75M10.75 9.45984H20.75" stroke-width="2"/>
	</symbol>
	<symbol fill="none" id="edit" viewBox="0 0 20 20">
		<path d="M2.5 17.5V13.9583L13.5 2.97917C13.6667 2.82639 13.8508 2.70833 14.0525 2.625C14.2542 2.54167 14.4658 2.5 14.6875 2.5C14.9092 2.5 15.1244 2.54167 15.3333 2.625C15.5422 2.70833 15.7228 2.83333 15.875 3L17.0208 4.16667C17.1875 4.31944 17.3092 4.5 17.3858 4.70833C17.4625 4.91667 17.5006 5.125 17.5 5.33333C17.5 5.55556 17.4619 5.7675 17.3858 5.96917C17.3097 6.17083 17.1881 6.35472 17.0208 6.52083L6.04167 17.5H2.5ZM14.6667 6.5L15.8333 5.33333L14.6667 4.16667L13.5 5.33333L14.6667 6.5Z" fill="currentColor"/>
	</symbol>
	<symbol fill="none" id="delete" viewBox="0 0 20 20">
		<path d="M5 15.8333C5 16.75 5.75 17.5 6.66666 17.5H13.3333C14.25 17.5 15 16.75 15 15.8333V5.83333H5V15.8333ZM15.8333 3.33333H12.9167L12.0833 2.5H7.91666L7.08333 3.33333H4.16666V5H15.8333V3.33333Z" fill="currentColor"/>
	</symbol>
	<symbol fill="none" id="download" viewBox="0 0 50 50">
		<path d="M21.875 37.5V12.0312L13.75 20.1562L9.375 15.625L25 0L40.625 15.625L36.25 20.1562L28.125 12.0312V37.5H21.875ZM6.25 50C4.53125 50 3.06042 49.3885 1.8375 48.1656C0.614583 46.9427 0.00208333 45.4708 0 43.75V34.375H6.25V43.75H43.75V34.375H50V43.75C50 45.4687 49.3885 46.9406 48.1656 48.1656C46.9427 49.3906 45.4708 50.0021 43.75 50H6.25Z" fill="currentColor"/>
	</symbol>
</svg>