<svg xmlns="http://www.w3.org/2000/svg">
	<symbol fill="none" id="logo" viewbox="0 0 160 27">
		<path d="M12.0612 26.54C10.6677 22.2196 7.63114 13.3846 6.99067 12.6087L8.41398 0L13.3956 14.2839L12.0612 26.54Z" fill="#3949AA"/>
		<path d="M24.5155 25.8347L19.0001 15.6948L20.0675 7.23013L25.5831 17.2819L24.5155 25.8347Z" fill="#3949A9"/>
		<path d="M20.0675 7.23013L18.426 20.9362C18.0426 24.1327 15.3085 26.54 12.0612 26.54L13.4849 13.1053C13.8386 9.76571 16.6796 7.23013 20.0675 7.23013Z" fill="url(#paint0_linear_94_34)"/>
		<path d="M0.0235263 23.2709L2.30793 5.33634C2.69612 2.28646 5.31286 0 8.41398 0L5.84605 23.9421C5.68754 25.4193 4.4302 26.54 2.93146 26.54C1.16694 26.54 -0.197493 25.0061 0.0235263 23.2709Z" fill="url(#paint1_linear_94_34)"/>
		<path d="M25.789 15.5269L24.5155 25.8347C28.1472 25.8347 31.1834 23.098 31.5278 19.5147L31.8483 16.1805C32.0187 14.407 30.6115 12.8731 28.8141 12.8731C27.2742 12.8731 25.9761 14.0117 25.789 15.5269Z" fill="url(#paint2_linear_94_34)"/>
		<path d="M122.456 16.4532C122.507 16.4532 122.533 16.4789 122.533 16.5046C122.559 16.8392 122.559 17.1738 122.559 17.5341V18.1003C122.533 18.6922 122.456 19.2584 122.353 19.7988C122.275 20.1591 122.172 20.5452 122.069 20.9055L121.991 21.1628C120.726 24.7658 117.603 26.7989 113.396 26.7989C109.859 26.7989 106.607 24.7143 105.11 21.4716L105.007 21.2143C104.49 20.0562 104.258 18.7951 104.258 17.5341C104.258 12.4127 108.362 8.24348 113.396 8.24348C117.5 8.24348 120.365 9.86483 121.707 12.9531C121.733 13.0046 121.707 13.0303 121.681 13.0561L118.274 14.7031C118.248 14.7289 118.223 14.7289 118.223 14.7031C118.197 14.7031 118.197 14.7031 118.171 14.6774C117.397 12.9531 115.796 12.0266 113.525 12.0266C110.66 12.0266 108.311 14.4973 108.311 17.5341C108.311 20.5452 110.66 23.0158 113.525 23.0158C115.874 23.0158 117.577 21.8834 118.326 19.8503H112.079C112.053 19.8503 112.028 19.8246 112.028 19.8246C112.002 19.7988 112.002 19.7731 112.028 19.7474L113.628 16.4789C113.628 16.4532 113.654 16.4532 113.68 16.4532H122.456ZM142.017 16.6542C142.068 16.6542 142.094 16.68 142.094 16.7057C142.12 17.0403 142.12 17.3748 142.12 17.7351V18.3013C142.094 18.8932 142.017 19.4594 141.914 19.9999C141.836 20.3602 141.733 20.7462 141.63 21.1065L141.552 21.3639C140.287 24.9669 137.164 27 132.957 27C129.42 27 126.168 24.9154 124.671 21.6727L124.568 21.4153C124.051 20.2572 123.819 18.9962 123.819 17.7351C123.819 12.6137 127.923 8.44454 132.957 8.44454C137.061 8.44454 139.926 10.0659 141.268 13.1542C141.294 13.2056 141.268 13.2314 141.242 13.2571L137.835 14.9042C137.809 14.9299 137.784 14.9299 137.784 14.9042C137.758 14.9042 137.758 14.9042 137.732 14.8785C136.958 13.1542 135.357 12.2277 133.086 12.2277C130.221 12.2277 127.872 14.6983 127.872 17.7351C127.872 20.7462 130.221 23.2168 133.086 23.2168C135.435 23.2168 137.138 22.0845 137.887 20.0514H131.64C131.614 20.0514 131.589 20.0256 131.589 20.0256C131.563 19.9999 131.563 19.9741 131.589 19.9484L133.189 16.68C133.189 16.6542 133.215 16.6542 133.241 16.6542H142.017ZM58.0295 17.452L62.9855 26.3566C63.0113 26.3566 63.0113 26.3823 62.9855 26.4081C62.9855 26.4338 62.9339 26.4596 62.9339 26.4596H58.5458C58.5324 26.4587 58.5198 26.4529 58.5103 26.4435C58.5008 26.434 58.4951 26.4214 58.4942 26.4081L55.758 21.5183L53.0219 26.4081C53.021 26.4214 53.0153 26.434 53.0058 26.4435C52.9963 26.4529 52.9837 26.4587 52.9703 26.4596H48.9952C48.9436 26.4596 48.9177 26.4081 48.9177 26.3823V10.2203L48.0143 8.52174C47.9885 8.52174 47.9885 8.49601 48.0143 8.47027C48.0143 8.44454 48.0401 8.44454 48.0659 8.44454H52.7896C52.8412 8.44454 52.8671 8.47027 52.8671 8.49601V18.5587L58.4942 8.47027C58.4942 8.44454 58.52 8.44454 58.5458 8.44454H62.9339C62.9597 8.44454 62.9855 8.44454 62.9855 8.47027C62.9855 8.49601 63.0113 8.52174 62.9855 8.54748L58.0295 17.452ZM70.9664 26.4081L63.9454 8.52174C63.9196 8.49601 63.9196 8.47027 63.9454 8.47027C63.9454 8.44454 63.9712 8.44454 63.9971 8.44454H67.9464C67.9722 8.44454 67.998 8.44454 67.998 8.47027L72.8507 20.7977L75.1222 15.0329L72.5668 8.52174V8.47027C72.5926 8.44454 72.5926 8.44454 72.6184 8.44454H76.5677C76.5935 8.44454 76.6193 8.44454 76.6193 8.47027L78.3746 12.9483L81.4721 20.7977L86.3248 8.47027C86.3248 8.44454 86.3506 8.44454 86.3765 8.44454H90.3258C90.3258 8.44454 90.3516 8.44454 90.3774 8.47027V8.52174L83.3564 26.4081C83.3564 26.4338 83.3306 26.4596 83.279 26.4596H79.6394V26.4338H79.5878V26.4081L77.1614 20.2315L74.735 26.4081C74.7092 26.4338 74.6834 26.4596 74.6576 26.4596H71.018V26.4338H70.9664V26.4081ZM97.3209 8.47027L104.342 26.3566V26.4081C104.316 26.4338 104.29 26.4338 104.264 26.4338H100.341C100.315 26.4338 100.289 26.4338 100.264 26.4081L98.8955 22.908H91.9519L90.5839 26.4081C90.583 26.4214 90.5773 26.434 90.5678 26.4435C90.5583 26.4529 90.5457 26.4587 90.5323 26.4596H86.5829C86.5696 26.4587 86.5569 26.4529 86.5474 26.4435C86.538 26.434 86.5322 26.4214 86.5313 26.4081C86.5055 26.4081 86.5055 26.3823 86.5313 26.3566L92.7521 10.5291L91.668 8.52174C91.6422 8.52174 91.6422 8.49601 91.668 8.47027C91.668 8.44454 91.6938 8.44454 91.7196 8.44454H97.2435C97.2693 8.44454 97.2951 8.44454 97.3209 8.47027ZM95.4366 14.0807L93.3458 19.3822H97.5274L95.4366 14.0807ZM152.979 8.47027L160 26.3566V26.4081C159.974 26.4338 159.948 26.4338 159.923 26.4338H155.999C155.973 26.4338 155.947 26.4338 155.922 26.4081L154.554 22.908H147.61L146.242 26.4081C146.241 26.4214 146.235 26.434 146.226 26.4435C146.216 26.4529 146.204 26.4587 146.19 26.4596H142.241C142.228 26.4587 142.215 26.4529 142.206 26.4435C142.196 26.434 142.19 26.4214 142.189 26.4081C142.164 26.4081 142.164 26.3823 142.189 26.3566L148.41 10.5291L147.326 8.52174C147.3 8.52174 147.3 8.49601 147.326 8.47027C147.326 8.44454 147.352 8.44454 147.378 8.44454H152.902C152.927 8.44454 152.953 8.44454 152.979 8.47027ZM151.095 14.0807L149.004 19.3822H153.186L151.095 14.0807Z" fill="currentColor"/>
		<defs>
		<linearGradient id="paint0_linear_94_34" x1="2103.78" y1="-10.1095" x2="2103.77" y2="27.9904" gradientUnits="userSpaceOnUse">
		<stop stop-color="#6DC1F3"/>
		<stop offset="1" stop-color="#F41CA9"/>
		</linearGradient>
		<linearGradient id="paint1_linear_94_34" x1="2735.23" y1="-6.74782e-08" x2="2735.21" y2="27.9291" gradientUnits="userSpaceOnUse">
		<stop stop-color="#6EC0F3"/>
		<stop offset="1" stop-color="#F718A8"/>
		</linearGradient>
		<linearGradient id="paint2_linear_94_34" x1="2711.44" y1="0.464896" x2="2711.39" y2="28.2187" gradientUnits="userSpaceOnUse">
		<stop stop-color="#F021AB"/>
		<stop offset="1" stop-color="#74B9EF"/>
		</linearGradient>
		</defs>
	</symbol>
</svg>
