<svg xmlns="http://www.w3.org/2000/svg">
	<symbol fill="none" id="sidebar-1" viewBox="0 0 17 18">
		<path d="M1 1.66667H6.5V9H1V1.66667Z" fill="currentColor"/>
		<path d="M1 12H6.5V15.6667H1V12Z" fill="currentColor"/>
		<path d="M9.83334 9.00001H15.3333V16.3333H9.83334V9.00001Z" fill="currentColor"/>
		<path d="M9.83334 1.66667H15.3333V5.33334H9.83334V1.66667Z" fill="currentColor"/>
		<path d="M1 1.66667H6.5V9H1V1.66667Z" stroke="currentColor" stroke-width="1.5" stroke-linecap="round" stroke-linejoin="round"/>
		<path d="M1 12H6.5V15.6667H1V12Z" stroke="currentColor" stroke-width="1.5" stroke-linecap="round" stroke-linejoin="round"/>
		<path d="M9.83334 9.00001H15.3333V16.3333H9.83334V9.00001Z" stroke="currentColor" stroke-width="1.5" stroke-linecap="round" stroke-linejoin="round"/>
		<path d="M9.83334 1.66667H15.3333V5.33334H9.83334V1.66667Z" stroke="currentColor" stroke-width="1.5" stroke-linecap="round" stroke-linejoin="round"/>
	</symbol>
	<symbol fill="none" id="sidebar-2" viewBox="0 0 20 20">
		<path d="M7.00001 8C7.79566 8 8.55872 7.68393 9.12133 7.12132C9.68394 6.55871 10 5.79565 10 5C10 4.20435 9.68394 3.44129 9.12133 2.87868C8.55872 2.31607 7.79566 2 7.00001 2C6.20436 2 5.4413 2.31607 4.87869 2.87868C4.31608 3.44129 4.00001 4.20435 4.00001 5C4.00001 5.79565 4.31608 6.55871 4.87869 7.12132C5.4413 7.68393 6.20436 8 7.00001 8ZM14.5 9C15.1631 9 15.7989 8.73661 16.2678 8.26777C16.7366 7.79893 17 7.16304 17 6.5C17 5.83696 16.7366 5.20107 16.2678 4.73223C15.7989 4.26339 15.1631 4 14.5 4C13.837 4 13.2011 4.26339 12.7322 4.73223C12.2634 5.20107 12 5.83696 12 6.5C12 7.16304 12.2634 7.79893 12.7322 8.26777C13.2011 8.73661 13.837 9 14.5 9ZM1.61501 16.428C1.41861 16.3062 1.26085 16.131 1.16012 15.923C1.05938 15.715 1.01981 15.4826 1.04601 15.253C1.23037 13.8041 1.93676 12.4721 3.03282 11.5066C4.12888 10.5412 5.53938 10.0086 7.00001 10.0086C8.46064 10.0086 9.87114 10.5412 10.9672 11.5066C12.0633 12.4721 12.7697 13.8041 12.954 15.253C13.012 15.72 12.782 16.173 12.384 16.427C10.7773 17.4568 8.90839 18.0028 7.00001 18C5.09139 18.0033 3.22209 17.4576 1.61501 16.428ZM14.5 16H14.394C14.464 15.703 14.482 15.389 14.442 15.067C14.2711 13.6923 13.7213 12.3922 12.854 11.312C13.4121 11.0921 14.0085 10.986 14.6082 10.9999C15.2079 11.0139 15.7988 11.1476 16.346 11.3932C16.8933 11.6388 17.386 11.9913 17.795 12.43C18.2041 12.8688 18.5213 13.3849 18.728 13.948C18.7912 14.1277 18.7898 14.3239 18.7241 14.5027C18.6584 14.6815 18.5325 14.8319 18.368 14.928C17.2006 15.6315 15.863 16.0022 14.5 16Z" fill="currentColor"/>
	</symbol>
	<symbol fill="none" id="sidebar-3" viewBox="0 0 20 20">
		<path d="M9.99999 1.66666C6.32415 1.66666 3.33332 4.65749 3.33332 8.32916C3.30915 13.7 9.74665 18.1533 9.99999 18.3333C9.99999 18.3333 16.6908 13.7 16.6667 8.33332C16.6667 4.65749 13.6758 1.66666 9.99999 1.66666ZM9.99999 11.6667C8.15832 11.6667 6.66665 10.175 6.66665 8.33332C6.66665 6.49166 8.15832 4.99999 9.99999 4.99999C11.8417 4.99999 13.3333 6.49166 13.3333 8.33332C13.3333 10.175 11.8417 11.6667 9.99999 11.6667Z" fill="currentColor"/>
	</symbol>
	<symbol fill="none" id="sidebar-4" viewBox="0 0 20 20">
		<path d="M3.33332 1.66666V16.6667H18.3333V18.3333H1.66666V1.66666H3.33332ZM13.3333 4.99999H18.3333V9.99999H16.6667V7.85249L15.3508 9.16499L13.0892 11.4217L12.5 12.0108L9.16666 8.67749L4.99999 12.8442L3.82166 11.6667L9.16666 6.32082L12.5 9.65416L14.1742 7.98499L15.495 6.66666H13.3333V4.99999Z" fill="currentColor"/>
	</symbol>
	<symbol fill="none" id="sidebar-5" viewBox="0 0 20 20">
		<path d="M6.45835 2.08334C6.45835 1.91758 6.3925 1.75861 6.27529 1.6414C6.15808 1.52419 5.99911 1.45834 5.83335 1.45834C5.66759 1.45834 5.50861 1.52419 5.3914 1.6414C5.27419 1.75861 5.20835 1.91758 5.20835 2.08334V3.40001C4.00835 3.49584 3.22168 3.73084 2.64335 4.31001C2.06418 4.88834 1.82918 5.67584 1.73251 6.87501H18.2675C18.1708 5.67501 17.9358 4.88834 17.3567 4.31001C16.7783 3.73084 15.9908 3.49584 14.7917 3.39918V2.08334C14.7917 1.91758 14.7258 1.75861 14.6086 1.6414C14.4914 1.52419 14.3324 1.45834 14.1667 1.45834C14.0009 1.45834 13.8419 1.52419 13.7247 1.6414C13.6075 1.75861 13.5417 1.91758 13.5417 2.08334V3.34418C12.9875 3.33334 12.3658 3.33334 11.6667 3.33334H8.33335C7.63418 3.33334 7.01251 3.33334 6.45835 3.34418V2.08334Z" fill="currentColor"/>
		<path fill-rule="evenodd" clip-rule="evenodd" d="M1.66666 10C1.66666 9.30083 1.66666 8.67917 1.67749 8.125H18.3225C18.3333 8.67917 18.3333 9.30083 18.3333 10V11.6667C18.3333 14.8092 18.3333 16.3808 17.3567 17.3567C16.38 18.3325 14.8092 18.3333 11.6667 18.3333H8.33332C5.19082 18.3333 3.61916 18.3333 2.64332 17.3567C1.66749 16.38 1.66666 14.8092 1.66666 11.6667V10ZM14.1667 11.6667C14.3877 11.6667 14.5996 11.5789 14.7559 11.4226C14.9122 11.2663 15 11.0543 15 10.8333C15 10.6123 14.9122 10.4004 14.7559 10.2441C14.5996 10.0878 14.3877 10 14.1667 10C13.9456 10 13.7337 10.0878 13.5774 10.2441C13.4211 10.4004 13.3333 10.6123 13.3333 10.8333C13.3333 11.0543 13.4211 11.2663 13.5774 11.4226C13.7337 11.5789 13.9456 11.6667 14.1667 11.6667ZM14.1667 15C14.3877 15 14.5996 14.9122 14.7559 14.7559C14.9122 14.5996 15 14.3877 15 14.1667C15 13.9457 14.9122 13.7337 14.7559 13.5774C14.5996 13.4211 14.3877 13.3333 14.1667 13.3333C13.9456 13.3333 13.7337 13.4211 13.5774 13.5774C13.4211 13.7337 13.3333 13.9457 13.3333 14.1667C13.3333 14.3877 13.4211 14.5996 13.5774 14.7559C13.7337 14.9122 13.9456 15 14.1667 15ZM10.8333 10.8333C10.8333 11.0543 10.7455 11.2663 10.5892 11.4226C10.433 11.5789 10.221 11.6667 9.99999 11.6667C9.77898 11.6667 9.56701 11.5789 9.41073 11.4226C9.25445 11.2663 9.16666 11.0543 9.16666 10.8333C9.16666 10.6123 9.25445 10.4004 9.41073 10.2441C9.56701 10.0878 9.77898 10 9.99999 10C10.221 10 10.433 10.0878 10.5892 10.2441C10.7455 10.4004 10.8333 10.6123 10.8333 10.8333ZM10.8333 14.1667C10.8333 14.3877 10.7455 14.5996 10.5892 14.7559C10.433 14.9122 10.221 15 9.99999 15C9.77898 15 9.56701 14.9122 9.41073 14.7559C9.25445 14.5996 9.16666 14.3877 9.16666 14.1667C9.16666 13.9457 9.25445 13.7337 9.41073 13.5774C9.56701 13.4211 9.77898 13.3333 9.99999 13.3333C10.221 13.3333 10.433 13.4211 10.5892 13.5774C10.7455 13.7337 10.8333 13.9457 10.8333 14.1667ZM5.83332 11.6667C6.05434 11.6667 6.2663 11.5789 6.42258 11.4226C6.57886 11.2663 6.66666 11.0543 6.66666 10.8333C6.66666 10.6123 6.57886 10.4004 6.42258 10.2441C6.2663 10.0878 6.05434 10 5.83332 10C5.61231 10 5.40035 10.0878 5.24407 10.2441C5.08779 10.4004 4.99999 10.6123 4.99999 10.8333C4.99999 11.0543 5.08779 11.2663 5.24407 11.4226C5.40035 11.5789 5.61231 11.6667 5.83332 11.6667ZM5.83332 15C6.05434 15 6.2663 14.9122 6.42258 14.7559C6.57886 14.5996 6.66666 14.3877 6.66666 14.1667C6.66666 13.9457 6.57886 13.7337 6.42258 13.5774C6.2663 13.4211 6.05434 13.3333 5.83332 13.3333C5.61231 13.3333 5.40035 13.4211 5.24407 13.5774C5.08779 13.7337 4.99999 13.9457 4.99999 14.1667C4.99999 14.3877 5.08779 14.5996 5.24407 14.7559C5.40035 14.9122 5.61231 15 5.83332 15Z" fill="currentColor"/>
	</symbol>
</svg>
