<svg xmlns="http://www.w3.org/2000/svg">
	<symbol fill="none" id="theme-light" viewBox="0 0 18 18">
		<path d="M9 4.90909C6.74182 4.90909 4.90909 6.74182 4.90909 9C4.90909 11.2582 6.74182 13.0909 9 13.0909C11.2582 13.0909 13.0909 11.2582 13.0909 9C13.0909 6.74182 11.2582 4.90909 9 4.90909ZM0.818182 9.81818H2.45455C2.90455 9.81818 3.27273 9.45 3.27273 9C3.27273 8.55 2.90455 8.18182 2.45455 8.18182H0.818182C0.368182 8.18182 0 8.55 0 9C0 9.45 0.368182 9.81818 0.818182 9.81818ZM15.5455 9.81818H17.1818C17.6318 9.81818 18 9.45 18 9C18 8.55 17.6318 8.18182 17.1818 8.18182H15.5455C15.0955 8.18182 14.7273 8.55 14.7273 9C14.7273 9.45 15.0955 9.81818 15.5455 9.81818ZM8.18182 0.818182V2.45455C8.18182 2.90455 8.55 3.27273 9 3.27273C9.45 3.27273 9.81818 2.90455 9.81818 2.45455V0.818182C9.81818 0.368182 9.45 0 9 0C8.55 0 8.18182 0.368182 8.18182 0.818182ZM8.18182 15.5455V17.1818C8.18182 17.6318 8.55 18 9 18C9.45 18 9.81818 17.6318 9.81818 17.1818V15.5455C9.81818 15.0955 9.45 14.7273 9 14.7273C8.55 14.7273 8.18182 15.0955 8.18182 15.5455ZM4.08273 2.92909C3.76364 2.61 3.24 2.61 2.92909 2.92909C2.61 3.24818 2.61 3.77182 2.92909 4.08273L3.79636 4.95C4.11545 5.26909 4.63909 5.26909 4.95 4.95C5.26091 4.63091 5.26909 4.10727 4.95 3.79636L4.08273 2.92909ZM14.2036 13.05C13.8845 12.7309 13.3609 12.7309 13.05 13.05C12.7309 13.3691 12.7309 13.8927 13.05 14.2036L13.9173 15.0709C14.2364 15.39 14.76 15.39 15.0709 15.0709C15.39 14.7518 15.39 14.2282 15.0709 13.9173L14.2036 13.05ZM15.0709 4.08273C15.39 3.76364 15.39 3.24 15.0709 2.92909C14.7518 2.61 14.2282 2.61 13.9173 2.92909L13.05 3.79636C12.7309 4.11545 12.7309 4.63909 13.05 4.95C13.3691 5.26091 13.8927 5.26909 14.2036 4.95L15.0709 4.08273ZM4.95 14.2036C5.26909 13.8845 5.26909 13.3609 4.95 13.05C4.63091 12.7309 4.10727 12.7309 3.79636 13.05L2.92909 13.9173C2.61 14.2364 2.61 14.76 2.92909 15.0709C3.24818 15.3818 3.77182 15.39 4.08273 15.0709L4.95 14.2036Z" fill="#F6F6F9"/>
	</symbol>
	<symbol fill="none" id="theme-dark" viewBox="0 0 19 19">
		<path d="M8.98677 0.487765C4.02408 0.757117 0.218408 4.9996 0.487759 9.9623C0.757111 14.925 4.9996 18.7307 9.96229 18.4613C14.925 18.192 18.7307 13.9495 18.4613 8.98678C18.4364 8.52745 18.3715 8.0703 18.2877 7.6342C17.3834 9.0553 15.834 10.0307 14.0167 10.1293C11.0411 10.2908 8.49348 8.00555 8.33198 5.02993C8.23388 3.22259 9.03532 1.56672 10.3502 0.513913C9.90759 0.477847 9.4461 0.462835 8.98677 0.487765Z" fill="currentColor"/>
	</symbol>
</svg>